<svg width="160" height="25" viewBox="0 0 160 25" fill="none" xmlns="http://www.w3.org/2000/svg">
<path d="M12.4789 20.7975C10.1184 20.7975 8.12834 20.0112 6.54294 18.403C4.95753 16.7948 4.18245 14.7767 4.18245 12.3486C4.18245 9.91944 4.95753 7.9023 6.54294 6.29411C8.12834 4.68591 10.1184 3.866 12.4789 3.866C15.0759 3.866 17.2341 4.82358 18.9212 6.7734L21.788 4.27595C19.3258 1.43688 16.2225 0 12.4789 0C9.0051 0 6.03662 1.16255 3.60868 3.52335C1.21397 5.88211 0 8.82623 0 12.3475C0 15.8709 1.21397 18.813 3.60868 21.1728C6.03662 23.4989 9.0051 24.6625 12.4789 24.6625C16.155 24.6625 19.5282 23.0543 21.8212 20.3182L18.9886 17.8197C17.3358 19.8042 15.1434 20.7975 12.4789 20.7975Z" fill="#101010"/>
<path d="M155.591 21.0503C155.591 20.8512 155.67 20.6604 155.809 20.5199C155.948 20.3793 156.136 20.3005 156.333 20.3008C156.529 20.301 156.718 20.3804 156.857 20.5213C156.995 20.6623 157.073 20.8533 157.073 21.0523C157.073 21.2515 156.994 21.4425 156.855 21.5831C156.716 21.7238 156.527 21.8027 156.33 21.8024C156.134 21.8021 155.945 21.7227 155.807 21.5817C155.668 21.4406 155.59 21.2495 155.59 21.0503M154.293 20.2712L152.382 20.7953C152.372 20.9646 152.374 21.136 152.385 21.3093L154.293 21.8325C154.44 21.8733 154.517 22.0364 154.457 22.1772L153.671 24.0138C153.797 24.129 153.931 24.2351 154.07 24.333L155.665 23.15C155.694 23.1287 155.727 23.1139 155.762 23.1066C155.797 23.0994 155.833 23.0998 155.868 23.1079C155.903 23.116 155.936 23.1316 155.964 23.1537C155.993 23.1757 156.016 23.2037 156.033 23.2357L156.962 24.9999C157.046 24.9867 157.129 24.9744 157.214 24.955C157.297 24.9367 157.377 24.9102 157.458 24.8857L157.539 22.889C157.54 22.8527 157.549 22.8172 157.566 22.7849C157.582 22.7525 157.605 22.724 157.633 22.7014C157.66 22.6788 157.693 22.6625 157.728 22.6537C157.762 22.6449 157.799 22.6437 157.834 22.6503L159.777 23.0154C159.86 22.8655 159.936 22.7125 160 22.5535L158.504 21.242C158.477 21.2183 158.455 21.1889 158.441 21.1559C158.426 21.1229 158.418 21.0871 158.418 21.0508C158.418 21.0145 158.426 20.9787 158.441 20.9457C158.455 20.9127 158.477 20.8833 158.504 20.8596L159.998 19.5502C159.935 19.3911 159.863 19.2361 159.781 19.0862L157.834 19.4523C157.799 19.4589 157.762 19.4578 157.728 19.449C157.693 19.4401 157.66 19.4239 157.633 19.4012C157.605 19.3786 157.582 19.3501 157.566 19.3178C157.549 19.2854 157.54 19.2499 157.539 19.2137L157.458 17.2149C157.296 17.1654 157.13 17.1266 156.963 17.0986L156.034 18.8659C156.017 18.8981 155.994 18.9262 155.965 18.9483C155.937 18.9705 155.904 18.9861 155.869 18.9943C155.834 19.0024 155.797 19.0028 155.762 18.9954C155.727 18.988 155.694 18.9731 155.665 18.9516L154.067 17.7676C153.928 17.8655 153.795 17.9736 153.671 18.0878L154.457 19.9255C154.471 19.9588 154.478 19.9948 154.477 20.0311C154.476 20.0674 154.468 20.1031 154.452 20.1358C154.437 20.1685 154.415 20.1975 154.387 20.2206C154.359 20.2438 154.327 20.2617 154.293 20.2712Z" fill="#101010"/>
<path d="M42.7262 18.4377C41.1408 20.0449 39.185 20.8658 36.8577 20.8658C34.5304 20.8658 32.5404 20.0449 30.956 18.4377C29.3706 16.8295 28.5945 14.8113 28.5945 12.3822C28.5945 9.98878 29.3706 7.97063 30.956 6.32878C32.5404 4.68693 34.5304 3.866 36.8577 3.866C39.185 3.866 41.1408 4.68693 42.7262 6.32878C44.3116 7.97063 45.1209 9.98878 45.1209 12.3822C45.1209 14.7767 44.3126 16.7948 42.7262 18.4377ZM36.8587 0C33.3849 0 30.4507 1.19723 28.0559 3.59168C25.6612 5.95146 24.4473 8.89455 24.4473 12.3822C24.4473 15.8719 25.6612 18.814 28.0559 21.1738C30.4507 23.5336 33.3849 24.7308 36.8587 24.7308C40.3325 24.7308 43.301 23.5336 45.6947 21.1738C48.0904 18.814 49.3034 15.8709 49.3034 12.3832C49.3034 8.89353 48.0894 5.95146 45.6615 3.5927C43.2668 1.19621 40.3325 0 36.8587 0Z" fill="#101010"/>
<path d="M74.545 16.8589L69.2835 0.660645H65.6104L60.3488 16.8589L54.7199 0.660645H50.3301L58.4232 24.1157H62.2231L67.4414 7.98269L72.6284 24.1157H76.4616L84.5547 0.660645H80.1749L74.545 16.8589ZM97.6869 20.3129H92.8763V13.6507H97.6526C99.8521 13.6507 101.432 15.0631 101.432 16.9476C101.432 18.8658 99.8511 20.3129 97.6869 20.3129ZM92.8763 4.46444H96.6913C98.477 4.46444 99.7494 5.64229 99.7494 7.22397C99.7494 8.94027 98.477 10.1181 96.6561 10.1181H92.8763V4.46444ZM100.883 11.3633C102.807 10.6566 103.941 8.90662 103.941 6.65187C103.941 4.93558 103.289 3.4885 101.982 2.37898C100.711 1.23172 99.1303 0.660645 97.2409 0.660645H88.5811V24.1157H98.4086C100.505 24.1157 102.224 23.4763 103.598 22.1638C105.007 20.8513 105.693 19.1687 105.693 17.1832C105.693 14.1881 103.941 11.9007 100.882 11.3623L100.883 11.3633Z" fill="#101010"/>
<path d="M127.2 18.4377C125.614 20.0449 123.659 20.8658 121.331 20.8658C119.004 20.8658 117.014 20.0449 115.43 18.4377C113.844 16.8295 113.068 14.8113 113.068 12.3822C113.068 9.98878 113.844 7.97063 115.43 6.32878C117.014 4.68693 119.004 3.866 121.331 3.866C123.659 3.866 125.614 4.68693 127.2 6.32878C128.785 7.97063 129.595 9.98878 129.595 12.3822C129.595 14.7767 128.786 16.7948 127.2 18.4377ZM121.332 0C117.858 0 114.924 1.19723 112.529 3.59168C110.134 5.95146 108.92 8.89455 108.92 12.3822C108.92 15.8719 110.134 18.814 112.529 21.1738C114.923 23.5336 117.858 24.7308 121.331 24.7308C124.805 24.7308 127.774 23.5336 130.168 21.1738C132.563 18.814 133.777 15.8709 133.777 12.3832C133.777 8.89353 132.563 5.95146 130.133 3.5927C127.739 1.19621 124.806 0 121.332 0Z" fill="#101010"/>
<path d="M152.314 0.660645L145.431 12.225L138.521 0.660645H133.878L143.069 15.9421L138.203 24.1157H142.927L147.59 16.3592L157.03 0.660645H152.314Z" fill="#101010"/>
</svg>
